<svg xmlns="http://www.w3.org/2000/svg" xmlns:xlink="http://www.w3.org/1999/xlink" width="2000" zoomAndPan="magnify" viewBox="0 0 1500 1499.999933" height="2000" preserveAspectRatio="xMidYMid meet" version="1.0"><defs><clipPath id="61bc622066"><path d="M 220 326 L 1350 326 L 1350 1209.476562 L 220 1209.476562 Z M 220 326 " clip-rule="nonzero"/></clipPath></defs><rect x="-150" width="1800" fill="#ffffff" y="-149.999993" height="1799.99992" fill-opacity="1"/><rect x="-150" width="1800" fill="#f6f4f0" y="-149.999993" height="1799.99992" fill-opacity="1"/><g clip-path="url(#61bc622066)"><path fill="#000000" d="M 1314.707031 502.988281 L 1314.707031 467.683594 L 1279.410156 467.683594 L 1279.410156 432.382812 L 820.589844 432.382812 L 820.589844 397.078125 L 785.292969 397.078125 L 785.292969 361.777344 L 750 361.777344 L 750 326.476562 L 467.648438 326.476562 L 467.648438 361.777344 L 432.351562 361.777344 L 432.351562 397.078125 L 397.058594 397.078125 L 397.058594 432.382812 L 361.765625 432.382812 L 361.765625 608.894531 L 255.882812 608.894531 L 255.882812 644.195312 L 220.589844 644.195312 L 220.589844 750.101562 L 255.882812 750.101562 L 255.882812 856.007812 L 291.175781 856.007812 L 291.175781 961.914062 L 326.46875 961.914062 L 326.46875 1067.820312 L 361.765625 1067.820312 L 361.765625 1173.730469 L 397.058594 1173.730469 L 397.058594 1209.03125 L 1314.707031 1209.03125 L 1314.707031 1173.730469 L 1350 1173.730469 L 1350 502.988281 Z M 1314.707031 502.988281 " fill-opacity="0.3" fill-rule="nonzero"/></g><path fill="#d1d3d4" d="M 1244.117188 467.683594 L 1244.117188 432.382812 L 1208.824219 432.382812 L 1208.824219 397.078125 L 750 397.078125 L 750 361.777344 L 714.707031 361.777344 L 714.707031 326.476562 L 679.410156 326.476562 L 679.410156 291.171875 L 397.058594 291.171875 L 397.058594 326.476562 L 361.765625 326.476562 L 361.765625 361.777344 L 326.46875 361.777344 L 326.46875 397.078125 L 291.175781 397.078125 L 291.175781 573.589844 L 185.292969 573.589844 L 185.292969 608.894531 L 150 608.894531 L 150 714.800781 L 185.292969 714.800781 L 185.292969 820.707031 L 220.589844 820.707031 L 220.589844 926.613281 L 255.882812 926.613281 L 255.882812 1032.519531 L 291.175781 1032.519531 L 291.175781 1138.425781 L 326.46875 1138.425781 L 326.46875 1173.730469 L 1244.117188 1173.730469 L 1244.117188 1138.425781 L 1279.410156 1138.425781 L 1279.410156 467.683594 Z M 1244.117188 467.683594 " fill-opacity="1" fill-rule="nonzero"/><path fill="#fdff00" d="M 220.589844 608.894531 L 220.589844 644.195312 L 185.292969 644.195312 L 185.292969 608.894531 Z M 291.175781 608.894531 L 255.882812 608.894531 L 255.882812 644.195312 L 291.175781 644.195312 Z M 361.765625 608.894531 L 326.46875 608.894531 L 326.46875 644.195312 L 361.765625 644.195312 Z M 432.351562 608.894531 L 397.058594 608.894531 L 397.058594 644.195312 L 432.351562 644.195312 Z M 502.941406 608.894531 L 467.648438 608.894531 L 467.648438 644.195312 L 502.941406 644.195312 Z M 573.53125 608.894531 L 538.234375 608.894531 L 538.234375 644.195312 L 573.53125 644.195312 Z M 644.117188 608.894531 L 608.824219 608.894531 L 608.824219 644.195312 L 644.117188 644.195312 Z M 714.707031 608.894531 L 679.410156 608.894531 L 679.410156 644.195312 L 714.707031 644.195312 Z M 785.292969 608.894531 L 750 608.894531 L 750 644.195312 L 785.292969 644.195312 Z M 855.882812 608.894531 L 820.589844 608.894531 L 820.589844 644.195312 L 855.882812 644.195312 Z M 926.46875 608.894531 L 891.175781 608.894531 L 891.175781 644.195312 L 926.46875 644.195312 Z M 997.058594 608.894531 L 961.765625 608.894531 L 961.765625 644.195312 L 997.058594 644.195312 Z M 326.46875 573.589844 L 361.765625 573.589844 L 361.765625 538.289062 L 326.46875 538.289062 Z M 397.058594 573.589844 L 432.351562 573.589844 L 432.351562 538.289062 L 397.058594 538.289062 Z M 467.648438 573.589844 L 502.941406 573.589844 L 502.941406 538.289062 L 467.648438 538.289062 Z M 538.234375 573.589844 L 573.53125 573.589844 L 573.53125 538.289062 L 538.234375 538.289062 Z M 608.824219 573.589844 L 644.117188 573.589844 L 644.117188 538.289062 L 608.824219 538.289062 Z M 679.410156 573.589844 L 714.707031 573.589844 L 714.707031 538.289062 L 679.410156 538.289062 Z M 750 573.589844 L 785.292969 573.589844 L 785.292969 538.289062 L 750 538.289062 Z M 820.589844 573.589844 L 855.882812 573.589844 L 855.882812 538.289062 L 820.589844 538.289062 Z M 891.175781 573.589844 L 926.46875 573.589844 L 926.46875 538.289062 L 891.175781 538.289062 Z M 961.765625 573.589844 L 997.058594 573.589844 L 997.058594 538.289062 L 961.765625 538.289062 Z M 1032.351562 538.289062 L 1032.351562 573.589844 L 1067.648438 573.589844 L 1067.648438 538.289062 Z M 1102.941406 538.289062 L 1102.941406 573.589844 L 1138.234375 573.589844 L 1138.234375 538.289062 Z M 1173.53125 538.289062 L 1173.53125 573.589844 L 1208.824219 573.589844 L 1208.824219 538.289062 Z M 361.765625 502.988281 L 361.765625 538.289062 L 397.058594 538.289062 L 397.058594 502.988281 Z M 432.351562 502.988281 L 432.351562 538.289062 L 467.648438 538.289062 L 467.648438 502.988281 Z M 502.941406 502.988281 L 502.941406 538.289062 L 538.234375 538.289062 L 538.234375 502.988281 Z M 573.53125 502.988281 L 573.53125 538.289062 L 608.824219 538.289062 L 608.824219 502.988281 Z M 644.117188 502.988281 L 644.117188 538.289062 L 679.410156 538.289062 L 679.410156 502.988281 Z M 714.707031 502.988281 L 714.707031 538.289062 L 750 538.289062 L 750 502.988281 Z M 785.292969 502.988281 L 785.292969 538.289062 L 820.589844 538.289062 L 820.589844 502.988281 Z M 855.882812 502.988281 L 855.882812 538.289062 L 891.175781 538.289062 L 891.175781 502.988281 Z M 926.46875 502.988281 L 926.46875 538.289062 L 961.765625 538.289062 L 961.765625 502.988281 Z M 997.058594 502.988281 L 997.058594 538.289062 L 1032.351562 538.289062 L 1032.351562 502.988281 Z M 1067.648438 502.988281 L 1067.648438 538.289062 L 1102.941406 538.289062 L 1102.941406 502.988281 Z M 1138.234375 502.988281 L 1138.234375 538.289062 L 1173.53125 538.289062 L 1173.53125 502.988281 Z M 1208.824219 502.988281 L 1208.824219 467.683594 L 1173.53125 467.683594 L 1173.53125 502.988281 Z M 1244.117188 538.289062 L 1244.117188 502.988281 L 1208.824219 502.988281 L 1208.824219 538.289062 Z M 1067.648438 573.589844 L 1067.648438 608.894531 L 1102.941406 608.894531 L 1102.941406 573.589844 Z M 1138.234375 608.894531 L 1173.53125 608.894531 L 1173.53125 573.589844 L 1138.234375 573.589844 Z M 1138.234375 608.894531 L 1102.941406 608.894531 L 1102.941406 644.195312 L 1138.234375 644.195312 Z M 1173.53125 644.195312 L 1208.824219 644.195312 L 1208.824219 608.894531 L 1173.53125 608.894531 Z M 1067.648438 644.195312 L 1067.648438 679.496094 L 1102.941406 679.496094 L 1102.941406 644.195312 Z M 1138.234375 679.496094 L 1173.53125 679.496094 L 1173.53125 644.195312 L 1138.234375 644.195312 Z M 1102.941406 679.496094 L 1102.941406 714.800781 L 1138.234375 714.800781 L 1138.234375 679.496094 Z M 1173.53125 714.800781 L 1208.824219 714.800781 L 1208.824219 679.496094 L 1173.53125 679.496094 Z M 1102.941406 750.101562 L 1102.941406 785.40625 L 1138.234375 785.40625 L 1138.234375 750.101562 Z M 1173.53125 714.800781 L 1138.234375 714.800781 L 1138.234375 750.101562 L 1173.53125 750.101562 Z M 1173.53125 785.40625 L 1208.824219 785.40625 L 1208.824219 750.101562 L 1173.53125 750.101562 Z M 1244.117188 750.101562 L 1244.117188 714.800781 L 1208.824219 714.800781 L 1208.824219 750.101562 Z M 1244.117188 679.496094 L 1244.117188 644.195312 L 1208.824219 644.195312 L 1208.824219 679.496094 Z M 1244.117188 608.894531 L 1244.117188 573.589844 L 1208.824219 573.589844 L 1208.824219 608.894531 Z M 1138.234375 785.40625 L 1138.234375 820.707031 L 1173.53125 820.707031 L 1173.53125 785.40625 Z M 1173.53125 856.007812 L 1208.824219 856.007812 L 1208.824219 820.707031 L 1173.53125 820.707031 Z M 1173.53125 926.613281 L 1208.824219 926.613281 L 1208.824219 891.3125 L 1173.53125 891.3125 Z M 1244.117188 820.707031 L 1244.117188 785.40625 L 1208.824219 785.40625 L 1208.824219 820.707031 Z M 1138.234375 856.007812 L 1138.234375 891.3125 L 1173.53125 891.3125 L 1173.53125 856.007812 Z M 1244.117188 891.3125 L 1244.117188 856.007812 L 1208.824219 856.007812 L 1208.824219 891.3125 Z M 1173.53125 997.21875 L 1208.824219 997.21875 L 1208.824219 961.914062 L 1173.53125 961.914062 Z M 1244.117188 1032.519531 L 1244.117188 997.21875 L 1208.824219 997.21875 L 1208.824219 1032.519531 Z M 1208.824219 1103.125 L 1244.117188 1103.125 L 1244.117188 1067.820312 L 1208.824219 1067.820312 Z M 1244.117188 961.914062 L 1244.117188 926.613281 L 1208.824219 926.613281 L 1208.824219 961.914062 Z M 326.46875 467.683594 L 326.46875 502.988281 L 361.765625 502.988281 L 361.765625 467.683594 Z M 397.058594 467.683594 L 397.058594 502.988281 L 432.351562 502.988281 L 432.351562 467.683594 Z M 467.648438 467.683594 L 467.648438 502.988281 L 502.941406 502.988281 L 502.941406 467.683594 Z M 538.234375 467.683594 L 538.234375 502.988281 L 573.53125 502.988281 L 573.53125 467.683594 Z M 608.824219 467.683594 L 608.824219 502.988281 L 644.117188 502.988281 L 644.117188 467.683594 Z M 679.410156 467.683594 L 679.410156 502.988281 L 714.707031 502.988281 L 714.707031 467.683594 Z M 785.292969 502.988281 L 785.292969 467.683594 L 750 467.683594 L 750 502.988281 Z M 855.882812 502.988281 L 855.882812 467.683594 L 820.589844 467.683594 L 820.589844 502.988281 Z M 926.46875 502.988281 L 926.46875 467.683594 L 891.175781 467.683594 L 891.175781 502.988281 Z M 997.058594 502.988281 L 997.058594 467.683594 L 961.765625 467.683594 L 961.765625 502.988281 Z M 1067.648438 502.988281 L 1067.648438 467.683594 L 1032.351562 467.683594 L 1032.351562 502.988281 Z M 1138.234375 502.988281 L 1138.234375 467.683594 L 1102.941406 467.683594 L 1102.941406 502.988281 Z M 397.058594 432.382812 L 361.765625 432.382812 L 361.765625 467.683594 L 397.058594 467.683594 Z M 397.058594 361.777344 L 361.765625 361.777344 L 361.765625 397.078125 L 397.058594 397.078125 Z M 432.351562 432.382812 L 432.351562 467.683594 L 467.648438 467.683594 L 467.648438 432.382812 Z M 502.941406 432.382812 L 502.941406 467.683594 L 538.234375 467.683594 L 538.234375 432.382812 Z M 573.53125 432.382812 L 573.53125 467.683594 L 608.824219 467.683594 L 608.824219 432.382812 Z M 679.410156 467.683594 L 679.410156 432.382812 L 644.117188 432.382812 L 644.117188 467.683594 Z M 432.351562 397.078125 L 397.058594 397.078125 L 397.058594 432.382812 L 432.351562 432.382812 Z M 326.46875 397.078125 L 326.46875 432.382812 L 361.765625 432.382812 L 361.765625 397.078125 Z M 502.941406 432.382812 L 502.941406 397.078125 L 467.648438 397.078125 L 467.648438 432.382812 Z M 573.53125 432.382812 L 573.53125 397.078125 L 538.234375 397.078125 L 538.234375 432.382812 Z M 644.117188 432.382812 L 644.117188 397.078125 L 608.824219 397.078125 L 608.824219 432.382812 Z M 467.648438 397.078125 L 467.648438 361.777344 L 432.351562 361.777344 L 432.351562 397.078125 Z M 538.234375 397.078125 L 538.234375 361.777344 L 502.941406 361.777344 L 502.941406 397.078125 Z M 608.824219 397.078125 L 608.824219 361.777344 L 573.53125 361.777344 L 573.53125 397.078125 Z M 432.351562 326.476562 L 397.058594 326.476562 L 397.058594 361.777344 L 432.351562 361.777344 Z M 502.941406 326.476562 L 467.648438 326.476562 L 467.648438 361.777344 L 502.941406 361.777344 Z M 573.53125 326.476562 L 538.234375 326.476562 L 538.234375 361.777344 L 573.53125 361.777344 Z M 679.410156 397.078125 L 679.410156 361.777344 L 644.117188 361.777344 L 644.117188 397.078125 Z M 714.707031 432.382812 L 714.707031 397.078125 L 679.410156 397.078125 L 679.410156 432.382812 Z M 644.117188 326.476562 L 608.824219 326.476562 L 608.824219 361.777344 L 644.117188 361.777344 Z M 750 467.683594 L 750 432.382812 L 714.707031 432.382812 L 714.707031 467.683594 Z M 820.589844 432.382812 L 785.292969 432.382812 L 785.292969 467.683594 L 820.589844 467.683594 Z M 891.175781 432.382812 L 855.882812 432.382812 L 855.882812 467.683594 L 891.175781 467.683594 Z M 961.765625 432.382812 L 926.46875 432.382812 L 926.46875 467.683594 L 961.765625 467.683594 Z M 1032.351562 432.382812 L 997.058594 432.382812 L 997.058594 467.683594 L 1032.351562 467.683594 Z M 1102.941406 432.382812 L 1067.648438 432.382812 L 1067.648438 467.683594 L 1102.941406 467.683594 Z M 1173.53125 432.382812 L 1138.234375 432.382812 L 1138.234375 467.683594 L 1173.53125 467.683594 Z M 1032.351562 679.496094 L 1032.351562 644.195312 L 997.058594 644.195312 L 997.058594 679.496094 Z M 961.765625 679.496094 L 961.765625 644.195312 L 926.46875 644.195312 L 926.46875 679.496094 Z M 891.175781 679.496094 L 891.175781 644.195312 L 855.882812 644.195312 L 855.882812 679.496094 Z M 820.589844 679.496094 L 820.589844 644.195312 L 785.292969 644.195312 L 785.292969 679.496094 Z M 750 679.496094 L 750 644.195312 L 714.707031 644.195312 L 714.707031 679.496094 Z M 679.410156 679.496094 L 679.410156 644.195312 L 644.117188 644.195312 L 644.117188 679.496094 Z M 608.824219 679.496094 L 608.824219 644.195312 L 573.53125 644.195312 L 573.53125 679.496094 Z M 538.234375 679.496094 L 538.234375 644.195312 L 502.941406 644.195312 L 502.941406 679.496094 Z M 467.648438 679.496094 L 467.648438 644.195312 L 432.351562 644.195312 L 432.351562 679.496094 Z M 397.058594 679.496094 L 397.058594 644.195312 L 361.765625 644.195312 L 361.765625 679.496094 Z M 326.46875 679.496094 L 326.46875 644.195312 L 291.175781 644.195312 L 291.175781 679.496094 Z M 255.882812 644.195312 L 220.589844 644.195312 L 220.589844 679.496094 L 255.882812 679.496094 Z M 185.292969 679.496094 L 185.292969 714.800781 L 220.589844 714.800781 L 220.589844 679.496094 Z M 255.882812 679.496094 L 255.882812 714.800781 L 291.175781 714.800781 L 291.175781 679.496094 Z M 361.765625 714.800781 L 361.765625 679.496094 L 326.46875 679.496094 L 326.46875 714.800781 Z M 432.351562 714.800781 L 432.351562 679.496094 L 397.058594 679.496094 L 397.058594 714.800781 Z M 502.941406 714.800781 L 502.941406 679.496094 L 467.648438 679.496094 L 467.648438 714.800781 Z M 573.53125 714.800781 L 573.53125 679.496094 L 538.234375 679.496094 L 538.234375 714.800781 Z M 644.117188 714.800781 L 644.117188 679.496094 L 608.824219 679.496094 L 608.824219 714.800781 Z M 714.707031 714.800781 L 714.707031 679.496094 L 679.410156 679.496094 L 679.410156 714.800781 Z M 785.292969 714.800781 L 785.292969 679.496094 L 750 679.496094 L 750 714.800781 Z M 855.882812 714.800781 L 855.882812 679.496094 L 820.589844 679.496094 L 820.589844 714.800781 Z M 926.46875 714.800781 L 926.46875 679.496094 L 891.175781 679.496094 L 891.175781 714.800781 Z M 961.765625 714.800781 L 997.058594 714.800781 L 997.058594 679.496094 L 961.765625 679.496094 Z M 220.589844 714.800781 L 220.589844 750.101562 L 255.882812 750.101562 L 255.882812 714.800781 Z M 326.46875 714.800781 L 291.175781 714.800781 L 291.175781 750.101562 L 326.46875 750.101562 Z M 397.058594 750.101562 L 397.058594 714.800781 L 361.765625 714.800781 L 361.765625 750.101562 Z M 467.648438 750.101562 L 467.648438 714.800781 L 432.351562 714.800781 L 432.351562 750.101562 Z M 538.234375 750.101562 L 538.234375 714.800781 L 502.941406 714.800781 L 502.941406 750.101562 Z M 608.824219 750.101562 L 608.824219 714.800781 L 573.53125 714.800781 L 573.53125 750.101562 Z M 679.410156 750.101562 L 679.410156 714.800781 L 644.117188 714.800781 L 644.117188 750.101562 Z M 750 750.101562 L 750 714.800781 L 714.707031 714.800781 L 714.707031 750.101562 Z M 820.589844 750.101562 L 820.589844 714.800781 L 785.292969 714.800781 L 785.292969 750.101562 Z M 891.175781 750.101562 L 891.175781 714.800781 L 855.882812 714.800781 L 855.882812 750.101562 Z M 926.46875 750.101562 L 961.765625 750.101562 L 961.765625 714.800781 L 926.46875 714.800781 Z M 1032.351562 750.101562 L 1032.351562 714.800781 L 997.058594 714.800781 L 997.058594 750.101562 Z M 291.175781 750.101562 L 255.882812 750.101562 L 255.882812 785.40625 L 291.175781 785.40625 Z M 361.765625 750.101562 L 326.46875 750.101562 L 326.46875 785.40625 L 361.765625 785.40625 Z M 432.351562 785.40625 L 432.351562 750.101562 L 397.058594 750.101562 L 397.058594 785.40625 Z M 502.941406 785.40625 L 502.941406 750.101562 L 467.648438 750.101562 L 467.648438 785.40625 Z M 573.53125 785.40625 L 573.53125 750.101562 L 538.234375 750.101562 L 538.234375 785.40625 Z M 644.117188 785.40625 L 644.117188 750.101562 L 608.824219 750.101562 L 608.824219 785.40625 Z M 714.707031 785.40625 L 714.707031 750.101562 L 679.410156 750.101562 L 679.410156 785.40625 Z M 785.292969 785.40625 L 785.292969 750.101562 L 750 750.101562 L 750 785.40625 Z M 855.882812 785.40625 L 855.882812 750.101562 L 820.589844 750.101562 L 820.589844 785.40625 Z M 891.175781 785.40625 L 926.46875 785.40625 L 926.46875 750.101562 L 891.175781 750.101562 Z M 997.058594 785.40625 L 997.058594 750.101562 L 961.765625 750.101562 L 961.765625 785.40625 Z M 1067.648438 785.40625 L 1067.648438 750.101562 L 1032.351562 750.101562 L 1032.351562 785.40625 Z M 220.589844 785.40625 L 220.589844 820.707031 L 255.882812 820.707031 L 255.882812 785.40625 Z M 326.46875 785.40625 L 291.175781 785.40625 L 291.175781 820.707031 L 326.46875 820.707031 Z M 361.765625 785.40625 L 361.765625 820.707031 L 397.058594 820.707031 L 397.058594 785.40625 Z M 432.351562 785.40625 L 432.351562 820.707031 L 467.648438 820.707031 L 467.648438 785.40625 Z M 538.234375 820.707031 L 538.234375 785.40625 L 502.941406 785.40625 L 502.941406 820.707031 Z M 608.824219 820.707031 L 608.824219 785.40625 L 573.53125 785.40625 L 573.53125 820.707031 Z M 679.410156 820.707031 L 679.410156 785.40625 L 644.117188 785.40625 L 644.117188 820.707031 Z M 750 820.707031 L 750 785.40625 L 714.707031 785.40625 L 714.707031 820.707031 Z M 820.589844 820.707031 L 820.589844 785.40625 L 785.292969 785.40625 L 785.292969 820.707031 Z M 855.882812 820.707031 L 891.175781 820.707031 L 891.175781 785.40625 L 855.882812 785.40625 Z M 961.765625 820.707031 L 961.765625 785.40625 L 926.46875 785.40625 L 926.46875 820.707031 Z M 997.058594 820.707031 L 1032.351562 820.707031 L 1032.351562 785.40625 L 997.058594 785.40625 Z M 291.175781 820.707031 L 255.882812 820.707031 L 255.882812 856.007812 L 291.175781 856.007812 Z M 326.46875 820.707031 L 326.46875 856.007812 L 361.765625 856.007812 L 361.765625 820.707031 Z M 397.058594 820.707031 L 397.058594 856.007812 L 432.351562 856.007812 L 432.351562 820.707031 Z M 502.941406 820.707031 L 467.648438 820.707031 L 467.648438 856.007812 L 502.941406 856.007812 Z M 573.53125 856.007812 L 573.53125 820.707031 L 538.234375 820.707031 L 538.234375 856.007812 Z M 644.117188 856.007812 L 644.117188 820.707031 L 608.824219 820.707031 L 608.824219 856.007812 Z M 714.707031 856.007812 L 714.707031 820.707031 L 679.410156 820.707031 L 679.410156 856.007812 Z M 785.292969 856.007812 L 785.292969 820.707031 L 750 820.707031 L 750 856.007812 Z M 820.589844 856.007812 L 855.882812 856.007812 L 855.882812 820.707031 L 820.589844 820.707031 Z M 926.46875 856.007812 L 926.46875 820.707031 L 891.175781 820.707031 L 891.175781 856.007812 Z M 961.765625 856.007812 L 997.058594 856.007812 L 997.058594 820.707031 L 961.765625 820.707031 Z M 1067.648438 856.007812 L 1067.648438 820.707031 L 1032.351562 820.707031 L 1032.351562 856.007812 Z M 220.589844 856.007812 L 220.589844 891.3125 L 255.882812 891.3125 L 255.882812 856.007812 Z M 291.175781 856.007812 L 291.175781 891.3125 L 326.46875 891.3125 L 326.46875 856.007812 Z M 361.765625 856.007812 L 361.765625 891.3125 L 397.058594 891.3125 L 397.058594 856.007812 Z M 467.648438 856.007812 L 432.351562 856.007812 L 432.351562 891.3125 L 467.648438 891.3125 Z M 538.234375 856.007812 L 502.941406 856.007812 L 502.941406 891.3125 L 538.234375 891.3125 Z M 573.53125 856.007812 L 573.53125 891.3125 L 608.824219 891.3125 L 608.824219 856.007812 Z M 644.117188 856.007812 L 644.117188 891.3125 L 679.410156 891.3125 L 679.410156 856.007812 Z M 714.707031 856.007812 L 714.707031 891.3125 L 750 891.3125 L 750 856.007812 Z M 785.292969 891.3125 L 820.589844 891.3125 L 820.589844 856.007812 L 785.292969 856.007812 Z M 891.175781 891.3125 L 891.175781 856.007812 L 855.882812 856.007812 L 855.882812 891.3125 Z M 926.46875 891.3125 L 961.765625 891.3125 L 961.765625 856.007812 L 926.46875 856.007812 Z M 1032.351562 891.3125 L 1032.351562 856.007812 L 997.058594 856.007812 L 997.058594 891.3125 Z M 1102.941406 891.3125 L 1102.941406 856.007812 L 1067.648438 856.007812 L 1067.648438 891.3125 Z M 255.882812 891.3125 L 255.882812 926.613281 L 291.175781 926.613281 L 291.175781 891.3125 Z M 326.46875 891.3125 L 326.46875 926.613281 L 361.765625 926.613281 L 361.765625 891.3125 Z M 432.351562 891.3125 L 397.058594 891.3125 L 397.058594 926.613281 L 432.351562 926.613281 Z M 502.941406 891.3125 L 467.648438 891.3125 L 467.648438 926.613281 L 502.941406 926.613281 Z M 538.234375 891.3125 L 538.234375 926.613281 L 573.53125 926.613281 L 573.53125 891.3125 Z M 608.824219 891.3125 L 608.824219 926.613281 L 644.117188 926.613281 L 644.117188 891.3125 Z M 679.410156 891.3125 L 679.410156 926.613281 L 714.707031 926.613281 L 714.707031 891.3125 Z M 750 891.3125 L 750 926.613281 L 785.292969 926.613281 L 785.292969 891.3125 Z M 820.589844 891.3125 L 820.589844 926.613281 L 855.882812 926.613281 L 855.882812 891.3125 Z M 891.175781 926.613281 L 926.46875 926.613281 L 926.46875 891.3125 L 891.175781 891.3125 Z M 997.058594 926.613281 L 997.058594 891.3125 L 961.765625 891.3125 L 961.765625 926.613281 Z M 1032.351562 926.613281 L 1067.648438 926.613281 L 1067.648438 891.3125 L 1032.351562 891.3125 Z M 291.175781 926.613281 L 291.175781 961.914062 L 326.46875 961.914062 L 326.46875 926.613281 Z M 397.058594 926.613281 L 361.765625 926.613281 L 361.765625 961.914062 L 397.058594 961.914062 Z M 467.648438 926.613281 L 432.351562 926.613281 L 432.351562 961.914062 L 467.648438 961.914062 Z M 502.941406 926.613281 L 502.941406 961.914062 L 538.234375 961.914062 L 538.234375 926.613281 Z M 573.53125 926.613281 L 573.53125 961.914062 L 608.824219 961.914062 L 608.824219 926.613281 Z M 644.117188 926.613281 L 644.117188 961.914062 L 679.410156 961.914062 L 679.410156 926.613281 Z M 714.707031 926.613281 L 714.707031 961.914062 L 750 961.914062 L 750 926.613281 Z M 785.292969 926.613281 L 785.292969 961.914062 L 820.589844 961.914062 L 820.589844 926.613281 Z M 855.882812 926.613281 L 855.882812 961.914062 L 891.175781 961.914062 L 891.175781 926.613281 Z M 961.765625 961.914062 L 961.765625 926.613281 L 926.46875 926.613281 L 926.46875 961.914062 Z M 997.058594 961.914062 L 1032.351562 961.914062 L 1032.351562 926.613281 L 997.058594 926.613281 Z M 1102.941406 961.914062 L 1102.941406 926.613281 L 1067.648438 926.613281 L 1067.648438 961.914062 Z M 361.765625 961.914062 L 326.46875 961.914062 L 326.46875 997.21875 L 361.765625 997.21875 Z M 432.351562 961.914062 L 397.058594 961.914062 L 397.058594 997.21875 L 432.351562 997.21875 Z M 467.648438 961.914062 L 467.648438 997.21875 L 502.941406 997.21875 L 502.941406 961.914062 Z M 538.234375 961.914062 L 538.234375 997.21875 L 573.53125 997.21875 L 573.53125 961.914062 Z M 608.824219 961.914062 L 608.824219 997.21875 L 644.117188 997.21875 L 644.117188 961.914062 Z M 679.410156 961.914062 L 679.410156 997.21875 L 714.707031 997.21875 L 714.707031 961.914062 Z M 750 961.914062 L 750 997.21875 L 785.292969 997.21875 L 785.292969 961.914062 Z M 820.589844 961.914062 L 820.589844 997.21875 L 855.882812 997.21875 L 855.882812 961.914062 Z M 891.175781 961.914062 L 891.175781 997.21875 L 926.46875 997.21875 L 926.46875 961.914062 Z M 961.765625 997.21875 L 997.058594 997.21875 L 997.058594 961.914062 L 961.765625 961.914062 Z M 1067.648438 997.21875 L 1067.648438 961.914062 L 1032.351562 961.914062 L 1032.351562 997.21875 Z M 1138.234375 997.21875 L 1138.234375 961.914062 L 1102.941406 961.914062 L 1102.941406 997.21875 Z M 291.175781 997.21875 L 291.175781 1032.519531 L 326.46875 1032.519531 L 326.46875 997.21875 Z M 397.058594 997.21875 L 361.765625 997.21875 L 361.765625 1032.519531 L 397.058594 1032.519531 Z M 432.351562 997.21875 L 432.351562 1032.519531 L 467.648438 1032.519531 L 467.648438 997.21875 Z M 502.941406 997.21875 L 502.941406 1032.519531 L 538.234375 1032.519531 L 538.234375 997.21875 Z M 573.53125 997.21875 L 573.53125 1032.519531 L 608.824219 1032.519531 L 608.824219 997.21875 Z M 644.117188 997.21875 L 644.117188 1032.519531 L 679.410156 1032.519531 L 679.410156 997.21875 Z M 714.707031 997.21875 L 714.707031 1032.519531 L 750 1032.519531 L 750 997.21875 Z M 785.292969 997.21875 L 785.292969 1032.519531 L 820.589844 1032.519531 L 820.589844 997.21875 Z M 855.882812 997.21875 L 855.882812 1032.519531 L 891.175781 1032.519531 L 891.175781 997.21875 Z M 926.46875 997.21875 L 926.46875 1032.519531 L 961.765625 1032.519531 L 961.765625 997.21875 Z M 997.058594 997.21875 L 997.058594 1032.519531 L 1032.351562 1032.519531 L 1032.351562 997.21875 Z M 1067.648438 1032.519531 L 1102.941406 1032.519531 L 1102.941406 997.21875 L 1067.648438 997.21875 Z M 361.765625 1032.519531 L 326.46875 1032.519531 L 326.46875 1067.820312 L 361.765625 1067.820312 Z M 397.058594 1032.519531 L 397.058594 1067.820312 L 432.351562 1067.820312 L 432.351562 1032.519531 Z M 467.648438 1032.519531 L 467.648438 1067.820312 L 502.941406 1067.820312 L 502.941406 1032.519531 Z M 538.234375 1032.519531 L 538.234375 1067.820312 L 573.53125 1067.820312 L 573.53125 1032.519531 Z M 608.824219 1032.519531 L 608.824219 1067.820312 L 644.117188 1067.820312 L 644.117188 1032.519531 Z M 679.410156 1032.519531 L 679.410156 1067.820312 L 714.707031 1067.820312 L 714.707031 1032.519531 Z M 750 1032.519531 L 750 1067.820312 L 785.292969 1067.820312 L 785.292969 1032.519531 Z M 820.589844 1032.519531 L 820.589844 1067.820312 L 855.882812 1067.820312 L 855.882812 1032.519531 Z M 891.175781 1032.519531 L 891.175781 1067.820312 L 926.46875 1067.820312 L 926.46875 1032.519531 Z M 961.765625 1032.519531 L 961.765625 1067.820312 L 997.058594 1067.820312 L 997.058594 1032.519531 Z M 1032.351562 1032.519531 L 1032.351562 1067.820312 L 1067.648438 1067.820312 L 1067.648438 1032.519531 Z M 1138.234375 1067.820312 L 1138.234375 1032.519531 L 1102.941406 1032.519531 L 1102.941406 1067.820312 Z M 291.175781 1067.820312 L 291.175781 1103.125 L 326.46875 1103.125 L 326.46875 1067.820312 Z M 361.765625 1067.820312 L 361.765625 1103.125 L 397.058594 1103.125 L 397.058594 1067.820312 Z M 432.351562 1067.820312 L 432.351562 1103.125 L 467.648438 1103.125 L 467.648438 1067.820312 Z M 502.941406 1067.820312 L 502.941406 1103.125 L 538.234375 1103.125 L 538.234375 1067.820312 Z M 573.53125 1067.820312 L 573.53125 1103.125 L 608.824219 1103.125 L 608.824219 1067.820312 Z M 644.117188 1067.820312 L 644.117188 1103.125 L 679.410156 1103.125 L 679.410156 1067.820312 Z M 714.707031 1067.820312 L 714.707031 1103.125 L 750 1103.125 L 750 1067.820312 Z M 785.292969 1067.820312 L 785.292969 1103.125 L 820.589844 1103.125 L 820.589844 1067.820312 Z M 855.882812 1067.820312 L 855.882812 1103.125 L 891.175781 1103.125 L 891.175781 1067.820312 Z M 926.46875 1067.820312 L 926.46875 1103.125 L 961.765625 1103.125 L 961.765625 1067.820312 Z M 997.058594 1067.820312 L 997.058594 1103.125 L 1032.351562 1103.125 L 1032.351562 1067.820312 Z M 1067.648438 1067.820312 L 1067.648438 1103.125 L 1102.941406 1103.125 L 1102.941406 1067.820312 Z M 1138.234375 1103.125 L 1173.53125 1103.125 L 1173.53125 1067.820312 L 1138.234375 1067.820312 Z M 326.46875 1138.425781 L 361.765625 1138.425781 L 361.765625 1103.125 L 326.46875 1103.125 Z M 397.058594 1138.425781 L 432.351562 1138.425781 L 432.351562 1103.125 L 397.058594 1103.125 Z M 467.648438 1138.425781 L 502.941406 1138.425781 L 502.941406 1103.125 L 467.648438 1103.125 Z M 538.234375 1138.425781 L 573.53125 1138.425781 L 573.53125 1103.125 L 538.234375 1103.125 Z M 608.824219 1138.425781 L 644.117188 1138.425781 L 644.117188 1103.125 L 608.824219 1103.125 Z M 679.410156 1138.425781 L 714.707031 1138.425781 L 714.707031 1103.125 L 679.410156 1103.125 Z M 750 1138.425781 L 785.292969 1138.425781 L 785.292969 1103.125 L 750 1103.125 Z M 820.589844 1138.425781 L 855.882812 1138.425781 L 855.882812 1103.125 L 820.589844 1103.125 Z M 891.175781 1138.425781 L 926.46875 1138.425781 L 926.46875 1103.125 L 891.175781 1103.125 Z M 961.765625 1138.425781 L 997.058594 1138.425781 L 997.058594 1103.125 L 961.765625 1103.125 Z M 1032.351562 1138.425781 L 1067.648438 1138.425781 L 1067.648438 1103.125 L 1032.351562 1103.125 Z M 1102.941406 1138.425781 L 1138.234375 1138.425781 L 1138.234375 1103.125 L 1102.941406 1103.125 Z M 1102.941406 1138.425781 " fill-opacity="1" fill-rule="nonzero"/><path fill="#000000" d="M 432.351562 326.476562 L 397.058594 326.476562 L 397.058594 291.171875 L 679.410156 291.171875 L 679.410156 326.476562 Z M 397.058594 326.476562 L 361.765625 326.476562 L 361.765625 361.777344 L 397.058594 361.777344 Z M 714.707031 361.777344 L 714.707031 326.476562 L 679.410156 326.476562 L 679.410156 361.777344 Z M 361.765625 361.777344 L 326.46875 361.777344 L 326.46875 397.078125 L 361.765625 397.078125 Z M 750 397.078125 L 750 361.777344 L 714.707031 361.777344 L 714.707031 397.078125 Z M 785.292969 432.382812 L 1208.824219 432.382812 L 1208.824219 397.078125 L 750 397.078125 L 750 432.382812 Z M 1244.117188 467.683594 L 1244.117188 432.382812 L 1208.824219 432.382812 L 1208.824219 467.683594 Z M 1244.117188 467.683594 L 1244.117188 1103.125 L 1208.824219 1103.125 L 1208.824219 1032.519531 L 1173.53125 1032.519531 L 1173.53125 1138.425781 L 326.46875 1138.425781 L 326.46875 1173.730469 L 1244.117188 1173.730469 L 1244.117188 1138.425781 L 1279.410156 1138.425781 L 1279.410156 467.683594 Z M 255.882812 608.894531 L 1032.351562 608.894531 L 1032.351562 573.589844 L 326.46875 573.589844 L 326.46875 397.078125 L 291.175781 397.078125 L 291.175781 573.589844 L 185.292969 573.589844 L 185.292969 608.894531 Z M 185.292969 644.195312 L 185.292969 608.894531 L 150 608.894531 L 150 714.800781 L 185.292969 714.800781 Z M 1067.648438 644.195312 L 1067.648438 608.894531 L 1032.351562 608.894531 L 1032.351562 714.800781 L 1067.648438 714.800781 Z M 220.589844 750.101562 L 220.589844 714.800781 L 185.292969 714.800781 L 185.292969 820.707031 L 220.589844 820.707031 Z M 1102.941406 750.101562 L 1102.941406 714.800781 L 1067.648438 714.800781 L 1067.648438 820.707031 L 1102.941406 820.707031 Z M 255.882812 856.007812 L 255.882812 820.707031 L 220.589844 820.707031 L 220.589844 926.613281 L 255.882812 926.613281 Z M 1138.234375 856.007812 L 1138.234375 820.707031 L 1102.941406 820.707031 L 1102.941406 926.613281 L 1138.234375 926.613281 Z M 291.175781 961.914062 L 291.175781 926.613281 L 255.882812 926.613281 L 255.882812 1032.519531 L 291.175781 1032.519531 Z M 1173.53125 961.914062 L 1173.53125 926.613281 L 1138.234375 926.613281 L 1138.234375 1032.519531 L 1173.53125 1032.519531 Z M 326.46875 1067.820312 L 326.46875 1032.519531 L 291.175781 1032.519531 L 291.175781 1138.425781 L 326.46875 1138.425781 Z M 326.46875 1067.820312 " fill-opacity="1" fill-rule="nonzero"/><path fill="#000000" d="M 1067.648438 573.589844 L 1067.648438 608.894531 L 1032.351562 608.894531 L 1032.351562 573.589844 Z M 1102.941406 644.195312 L 1102.941406 608.894531 L 1067.648438 608.894531 L 1067.648438 714.800781 L 1102.941406 714.800781 Z M 1138.234375 750.101562 L 1138.234375 714.800781 L 1102.941406 714.800781 L 1102.941406 820.707031 L 1138.234375 820.707031 Z M 1173.53125 856.007812 L 1173.53125 820.707031 L 1138.234375 820.707031 L 1138.234375 926.613281 L 1173.53125 926.613281 Z M 1208.824219 961.914062 L 1208.824219 926.613281 L 1173.53125 926.613281 L 1173.53125 1032.519531 L 1208.824219 1032.519531 Z M 1208.824219 1032.519531 L 1208.824219 1103.125 L 1244.117188 1103.125 L 1244.117188 1032.519531 Z M 326.46875 538.289062 L 326.46875 573.589844 L 1032.351562 573.589844 L 1032.351562 538.289062 Z M 185.292969 608.894531 L 185.292969 714.800781 L 220.589844 714.800781 L 220.589844 608.894531 Z M 220.589844 714.800781 L 220.589844 820.707031 L 255.882812 820.707031 L 255.882812 714.800781 Z M 255.882812 820.707031 L 255.882812 926.613281 L 291.175781 926.613281 L 291.175781 820.707031 Z M 291.175781 926.613281 L 291.175781 1032.519531 L 326.46875 1032.519531 L 326.46875 926.613281 Z M 361.765625 1032.519531 L 326.46875 1032.519531 L 326.46875 1138.425781 L 1138.234375 1138.425781 L 1138.234375 1103.125 L 361.765625 1103.125 Z M 361.765625 1032.519531 " fill-opacity="0.3" fill-rule="nonzero"/><path fill="#ffffff" d="M 1032.351562 644.195312 L 1032.351562 714.800781 L 997.058594 714.800781 L 997.058594 644.195312 L 220.589844 644.195312 L 220.589844 608.894531 L 1032.351562 608.894531 Z M 750 432.382812 L 750 467.683594 L 1208.824219 467.683594 L 1208.824219 432.382812 Z M 1032.351562 714.800781 L 1032.351562 820.707031 L 1067.648438 820.707031 L 1067.648438 714.800781 Z M 1067.648438 820.707031 L 1067.648438 926.613281 L 1102.941406 926.613281 L 1102.941406 820.707031 Z M 1102.941406 926.613281 L 1102.941406 1032.519531 L 1138.234375 1032.519531 L 1138.234375 926.613281 Z M 1138.234375 1138.425781 L 1173.53125 1138.425781 L 1173.53125 1032.519531 L 1138.234375 1032.519531 Z M 1208.824219 467.683594 L 1208.824219 1103.125 L 1244.117188 1103.125 L 1244.117188 467.683594 Z M 397.058594 326.476562 L 397.058594 361.777344 L 679.410156 361.777344 L 679.410156 326.476562 Z M 679.410156 361.777344 L 679.410156 397.078125 L 714.707031 397.078125 L 714.707031 361.777344 Z M 361.765625 397.078125 L 397.058594 397.078125 L 397.058594 361.777344 L 361.765625 361.777344 Z M 714.707031 397.078125 L 714.707031 432.382812 L 750 432.382812 L 750 397.078125 Z M 326.46875 538.289062 L 361.765625 538.289062 L 361.765625 397.078125 L 326.46875 397.078125 Z M 326.46875 538.289062 " fill-opacity="0.5" fill-rule="nonzero"/></svg>